# xmcd
#
# Track frame offsets:
#	150
#	15634
#	30463
#	46948
#	62383
#	74331
#	89288
#	104209
#	118570
#	140475
#	157054
#	171913
#
# Disc length: 2448 seconds
#
# Revision: 2
# Processed by: cddbd v1.5.1PL0 Copyright (c) Steve Scherf et al.
# Submitted via: dBpowerAMP V4.0
#
DISCID=a1098e0c
DTITLE=Heidi Hauge, Jenny Jensen and Liv Marit Wedvik - Country Jul
DYEAR=2003
DGENRE=Country
TTITLE0=Heidi Hauge og Bjørn A. Hauge - I believe In Santa Claus
TTITLE1=Jenny Jensen - Et lys Imot Mørketida
TTITLE2=Liv Marit Wedvik og Eirik Johansen - Christmas Without You
TTITLE3=Heidi Hauge  - Beautiful Strar Of Bethlehem
TTITLE4=Jenny Jensen - With Bells On
TTITLE5=Liv Marit Wedvik - God Jul Og Godt Nyttår
TTITLE6=Heidi Hauge og Bjørn A. Hauge - The Greatest Gift Of All
TTITLE7=Jenny Jensen - Julemedley
TTITLE8=Liv Marit Wedvik - Mary's Boychild
TTITLE9=Heidi Hauge - Jul Uten deg
TTITLE10=Jenny Jensen - The Chrismas Song
TTITLE11=Liv Marit Wedvik - White Christmas
EXTD=
EXTT0=
EXTT1=
EXTT2=
EXTT3=
EXTT4=
EXTT5=
EXTT6=
EXTT7=
EXTT8=
EXTT9=
EXTT10=
EXTT11=
PLAYORDER=
